<?xml version='1.0' encoding='utf-8'?>
<svg xmlns="http://www.w3.org/2000/svg" version="1.1" width="1139px" height="813px" viewBox="-143 496 1139 813"> <g id="layer1"> <g style="fill:rgb(0,174,199); fill-opacity:1.0; stroke-linejoin: miter"> <path d="M-143.001,495.33557C-143.17696,495.33557,-143.34569,495.40546,-143.47011,495.52988C-143.59453,495.6543,-143.66441,495.82306,-143.66441,495.999L-143.6634,1309.0C-143.6634,1309.3663,-143.3664,1309.6635,-143.0,1309.6635L996.001,1309.6644C996.17694,1309.6644,996.3457,1309.5945,996.4701,1309.4701C996.5945,1309.3457,996.66437,1309.1769,996.66437,1309.001L996.6634,496.0C996.6634,495.6336,996.3664,495.33658,996.0,495.33658L-143.001,495.33557 Z"/> </g> <g> <g style="fill:rgb(0,0,0); fill-opacity:1.0; stroke-linejoin: miter"> <path d="M444.8556,1213.2594C442.40588,1213.2594,439.95203,1213.261,437.49286,1213.2648C436.91028,1214.4521,436.40094,1215.6724,435.95746,1216.9222C445.93372,1216.9387,455.90967,1216.9557,465.8855,1216.9723C484.61786,1217.0039,503.35114,1217.0352,522.0806,1217.0664C526.59485,1217.074,531.1143,1217.079,535.6465,1217.079C537.1413,1217.079,538.6375,1217.0785,540.13544,1217.0773C539.5671,1215.827,538.9472,1214.5981,538.2403,1213.4062C530.175,1213.3926,522.1086,1213.3792,514.04407,1213.3657C495.31445,1213.3344,476.583,1213.3031,457.84924,1213.2719L457.849,1213.2719C453.52576,1213.2645,449.19708,1213.2594,444.8556,1213.2594 Z"/> </g> <g style="fill:rgb(0,0,0); fill-opacity:1.0; stroke-linejoin: miter"> <path d="M444.35156,1203.4017C443.42633,1204.4141,442.53253,1205.4453,441.70776,1206.5167C449.13885,1206.5289,456.57,1206.5415,464.0008,1206.5538C482.73297,1206.5852,501.4662,1206.6165,520.1958,1206.6477C524.5629,1206.655,528.9435,1206.6564,533.32556,1206.6572C532.39606,1205.5884,531.404,1204.5549,530.38055,1203.541C527.6133,1203.5382,524.84406,1203.5363,522.0806,1203.532C503.35083,1203.5004,484.61945,1203.469,465.88568,1203.4377L465.88605,1203.4377C458.70813,1203.4258,451.52985,1203.4133,444.35156,1203.4017 Z"/> </g> <g style="fill:rgb(0,0,0); fill-opacity:1.0; stroke-linejoin: miter"> <path d="M448.0301,1199.7257C446.73608,1200.9054,445.51093,1202.1332,444.35132,1203.4025C451.52936,1203.4143,458.70758,1203.4261,465.88586,1203.4385C484.61816,1203.4694,503.35138,1203.501,522.0809,1203.5323C524.84424,1203.537,527.6135,1203.5388,530.3807,1203.5415C529.09656,1202.2694,527.74994,1201.0383,526.3431,1199.8522C522.2433,1199.8453,518.14325,1199.8385,514.04407,1199.8315C495.3144,1199.8003,476.5829,1199.7688,457.84906,1199.7373L457.84888,1199.7373C454.57977,1199.7319,451.30597,1199.7288,448.0301,1199.7257 Z"/> </g> <g style="fill:rgb(0,0,0); fill-opacity:1.0; stroke-linejoin: miter"> <path d="M461.55347,1189.8966C460.89648,1190.2922,460.23303,1190.678,459.5832,1191.0842C458.58765,1191.7064,457.60736,1192.351,456.63654,1193.0077C459.09088,1193.0117,461.54547,1193.0157,464.0,1193.0198C481.72375,1193.0494,499.44708,1193.0795,517.1683,1193.1086C515.49164,1192.0278,513.7831,1190.9949,512.0613,1189.9813C496.66998,1189.9554,481.27704,1189.9299,465.88495,1189.9039C464.44116,1189.9015,462.9973,1189.8994,461.55347,1189.897L461.55347,1189.8966 Z"/> </g> <g style="fill:rgb(0,0,0); fill-opacity:1.0; stroke-linejoin: miter"> <path d="M467.9984,1186.2202L467.45398,1186.5153Q463.9254,1188.4521,461.55988,1189.8978L512.0613,1189.981Q508.81567,1188.0673,505.48346,1186.2826L467.9984,1186.2202 Z"/> </g> <g style="fill:rgb(0,0,0); fill-opacity:1.0; stroke-linejoin: miter"> <path d="M461.55353,1189.8966L461.55402,1189.897L461.55408,1189.8981L461.55408,1189.8969L461.55414,1189.898L461.55408,1189.8966L461.55426,1189.897L461.55426,1189.8969L461.55432,1189.8966L461.5545,1189.8978L461.55353,1189.8966"/> </g> <g style="fill:rgb(0,0,0); fill-opacity:1.0; stroke-linejoin: miter"> <path d="M468.22662,1149.3079L468.76538,1149.5767Q471.19263,1150.7887,474.70093,1152.4385L505.57214,1152.4861Q508.79572,1150.9902,511.97803,1149.3771L468.22662,1149.3079 Z"/> </g> <g style="fill:rgb(0,0,0); fill-opacity:1.0; stroke-linejoin: miter"> <path d="M461.22107,1145.6106C463.5218,1146.8975,465.86432,1148.1278,468.22577,1149.309C482.80994,1149.3319,497.3933,1149.355,511.97705,1149.3782C514.27966,1148.2084,516.551,1146.9875,518.7654,1145.7013C517.676,1145.6995,516.58673,1145.698,515.4977,1145.6963C497.40906,1145.6675,479.3175,1145.6393,461.22644,1145.6106 Z"/> </g> <g style="fill:rgb(0,0,0); fill-opacity:1.0; stroke-linejoin: miter"> <path d="M448.99115,1135.7416C450.20825,1136.823,451.47754,1137.8604,452.7823,1138.8673C456.52185,1138.8734,460.26154,1138.8795,464.00104,1138.8861C482.7334,1138.9174,501.4666,1138.9486,520.196,1138.9799C522.3284,1138.9838,524.46295,1138.9861,526.5973,1138.9888C527.8087,1137.9866,528.9829,1136.9529,530.10077,1135.8737C527.42645,1135.8711,524.75183,1135.8684,522.081,1135.8638C503.3512,1135.8324,484.6198,1135.8013,465.88586,1135.7699L465.88586,1135.7701C460.2561,1135.7606,454.62646,1135.7511,448.9964,1135.7416 Z"/> </g> <g style="fill:rgb(0,0,0); fill-opacity:1.0; stroke-linejoin: miter"> <path d="M445.20966,1132.0587L445.51086,1132.3763Q446.85626,1133.8138,448.99103,1135.7401L530.1006,1135.872Q531.9218,1134.108,533.54877,1132.1941L457.84906,1132.0676Q455.75647,1132.062,445.20966,1132.0587 Z"/> </g> <g style="fill:rgb(0,0,0); fill-opacity:1.0; stroke-linejoin: miter"> <path d="M438.05255,1122.1891C438.60553,1123.2518,439.21167,1124.2932,439.87024,1125.3114C447.91394,1125.3247,455.95782,1125.3385,464.0014,1125.3519C482.7337,1125.3832,501.46692,1125.4144,520.1962,1125.4456C524.18146,1125.4524,528.1742,1125.4558,532.1751,1125.4558C534.2123,1125.4558,536.2517,1125.4548,538.2933,1125.4531C538.8612,1124.4346,539.3777,1123.3954,539.84094,1122.337L539.8348,1122.337C537.8772,1122.3386,535.9215,1122.3395,533.96765,1122.3395C529.9978,1122.3395,526.0357,1122.3362,522.0811,1122.3297C503.35126,1122.2983,484.62012,1122.2673,465.8863,1122.2358L465.88586,1122.2358C456.60968,1122.2205,447.33368,1122.2047,438.05768,1122.1891 Z"/> </g> <g style="fill:rgb(0,0,0); fill-opacity:1.0; stroke-linejoin: miter"> <path d="M445.87866,1118.5245C442.72345,1118.5245,439.5617,1118.5271,436.39117,1118.5334C436.87305,1119.7758,437.4298,1120.9941,438.0517,1122.1896C447.32965,1122.2048,456.60773,1122.2206,465.88525,1122.2358C484.6176,1122.2673,503.35077,1122.2987,522.0802,1122.3303C526.03534,1122.3368,529.99817,1122.3398,533.9689,1122.3398C535.9241,1122.3398,537.88104,1122.3391,539.84,1122.3376C540.3653,1121.1375,540.82715,1119.9174,541.21173,1118.6747C532.1558,1118.6594,523.0989,1118.6445,514.04315,1118.6293C495.31323,1118.598,476.5819,1118.5667,457.84814,1118.5354L457.84888,1118.5354C453.86652,1118.5288,449.87787,1118.5245,445.87866,1118.5245 Z"/> </g> <g style="fill:rgb(0,0,0); fill-opacity:1.0; stroke-linejoin: miter"> <path d="M434.1396,1108.22C434.20575,1109.4098,434.3216,1110.5944,434.51697,1111.7676C444.34467,1111.7839,454.17255,1111.8008,463.99963,1111.8173C482.73187,1111.8484,501.4651,1111.8796,520.19464,1111.9109C524.1465,1111.9176,528.1035,1111.9219,532.07074,1111.9219C535.55853,1111.9219,539.05426,1111.9186,542.5614,1111.9105C542.6497,1110.9442,542.7059,1109.9728,542.7059,1108.9963C542.7059,1108.9307,542.70044,1108.865,542.7001,1108.7993C539.9223,1108.8041,537.151,1108.806,534.3846,1108.806C530.2739,1108.806,526.1741,1108.8016,522.07947,1108.7948L522.081,1108.7948C503.35114,1108.7638,484.61993,1108.7322,465.88586,1108.7012C455.78632,1108.6841,445.68695,1108.6672,435.58643,1108.6504C435.1906,1108.6497,434.62146,1108.4222,434.14465,1108.22 Z"/> </g> <g style="fill:rgb(0,0,0); fill-opacity:1.0; stroke-linejoin: miter"> <path d="M445.7666,1104.9899C441.89368,1104.9899,438.01013,1104.994,434.11096,1105.0043C434.08936,1105.4857,434.06836,1105.9672,434.06836,1106.4469C434.06836,1107.0393,434.10724,1107.6289,434.14,1108.2186C434.6176,1108.4215,435.18958,1108.6504,435.58685,1108.6512C445.68652,1108.6681,455.78613,1108.685,465.88647,1108.7019C484.6187,1108.7329,503.352,1108.7643,522.0813,1108.7958C526.161,1108.8026,530.246,1108.8069,534.34155,1108.8069C537.1229,1108.8069,539.9091,1108.8049,542.70197,1108.8004C542.69836,1108.2373,542.68494,1107.674,542.65137,1107.11C542.6216,1106.6051,542.584,1106.0986,542.5386,1105.5942C542.487,1105.4972,542.4337,1105.4003,542.3806,1105.304C542.3503,1105.2487,542.31433,1105.1967,542.2838,1105.1421C532.8709,1105.1261,523.45685,1105.1106,514.0438,1105.0948C495.31396,1105.0637,476.58057,1105.0321,457.849,1105.001L457.84888,1105.0012C453.82904,1104.9945,449.80353,1104.9899,445.7666,1104.9899 Z"/> </g> <g style="fill:rgb(0,0,0); fill-opacity:1.0; stroke-linejoin: miter"> <path d="M439.94714,1095.1235C439.0329,1096.1285,438.15936,1097.1624,437.3506,1098.2386C446.234,1098.2537,455.11755,1098.2686,464.00208,1098.2833C482.73425,1098.315,501.4674,1098.3462,520.197,1098.3773C524.6393,1098.3848,529.0873,1098.3898,533.54675,1098.3898C534.8876,1098.3898,536.2295,1098.3894,537.57263,1098.3883C536.9157,1097.6167,536.23474,1096.8615,535.5237,1096.1285C535.23926,1095.8353,534.93823,1095.5582,534.6484,1095.2705C530.45544,1095.2694,526.2619,1095.2682,522.082,1095.2612C503.352,1095.2299,484.62067,1095.1987,465.8869,1095.1671L465.88586,1095.1671C457.23987,1095.153,448.59332,1095.1383,439.94714,1095.1235 Z"/> </g> <g style="fill:rgb(0,0,0); fill-opacity:1.0; stroke-linejoin: miter"> <path d="M443.61224,1091.455C442.80548,1092.1921,442.01715,1092.9476,441.24933,1093.7231C440.79895,1094.1782,440.3756,1094.6531,439.94696,1095.1243C448.59308,1095.1389,457.2395,1095.1536,465.88568,1095.1676C484.6181,1095.1996,503.35132,1095.2307,522.08075,1095.262C526.2607,1095.2687,530.4542,1095.27,534.64734,1095.2711C533.36523,1093.9988,532.04266,1092.7646,530.6616,1091.5885C525.12244,1091.5796,519.58276,1091.57,514.04395,1091.561C495.31427,1091.5298,476.5829,1091.4985,457.84906,1091.4668L457.84888,1091.4668C453.1131,1091.4591,448.3672,1091.4556,443.61224,1091.455 Z"/> </g> <g style="fill:rgb(0,0,0); fill-opacity:1.0; stroke-linejoin: miter"> <path d="M456.95624,1081.6198L456.956,1081.6199C455.32117,1082.6157,453.7254,1083.656,452.16174,1084.731C456.10828,1084.7378,460.05505,1084.7444,464.0017,1084.7507C482.7339,1084.7821,501.46704,1084.8136,520.1967,1084.845C520.6536,1084.8455,521.11084,1084.8463,521.5678,1084.847C519.9211,1083.7682,518.24286,1082.7244,516.5327,1081.7195C499.6516,1081.6909,482.76953,1081.663,465.88702,1081.6345C462.9099,1081.6299,459.93298,1081.6246,456.95624,1081.6198 Z"/> </g> <g style="fill:rgb(0,0,0); fill-opacity:1.0; stroke-linejoin: miter"> <path d="M463.41986,1077.9432C461.22498,1079.1177,459.06268,1080.3363,456.95544,1081.6199L456.956,1081.6199C459.93292,1081.6246,462.90985,1081.6299,465.8869,1081.6349C482.7694,1081.6631,499.6521,1081.691,516.5326,1081.7196C514.34827,1080.4358,512.1189,1079.2083,509.86328,1078.0212C494.38367,1077.9954,478.9032,1077.9694,463.41986,1077.9432 Z"/> </g> <g style="fill:rgb(0,0,0); fill-opacity:1.0; stroke-linejoin: miter"> <path d="M464.74652,1041.0338L464.7475,1041.0339C466.8175,1042.1066,468.91125,1043.147,471.02246,1044.163C483.77747,1044.1832,496.53107,1044.2035,509.28534,1044.2242C511.36414,1043.2222,513.4162,1042.1836,515.44604,1041.1145C498.54913,1041.0873,481.65063,1041.0605,464.75262,1041.0338 Z"/> </g> <g style="fill:rgb(0,0,0); fill-opacity:1.0; stroke-linejoin: miter"> <path d="M457.9358,1037.3358C460.1668,1038.6201,462.44568,1039.8419,464.74652,1041.034L464.75262,1041.034C481.65106,1041.061,498.5481,1041.0878,515.44604,1041.1149C517.6783,1039.9392,519.8744,1038.7157,522.0294,1037.4381C519.75104,1037.4344,517.47284,1037.4308,515.19476,1037.4271C496.11237,1037.3967,477.02704,1037.3663,457.94116,1037.3358 Z"/> </g> <g style="fill:rgb(0,0,0); fill-opacity:1.0; stroke-linejoin: miter"> <path d="M445.4178,1027.4655C446.67505,1028.5499,447.97583,1029.5913,449.3089,1030.5912C454.20636,1030.5994,459.1037,1030.6077,464.00104,1030.6161C482.7334,1030.6471,501.46655,1030.6785,520.196,1030.7098C523.5304,1030.7156,526.86975,1030.7188,530.21063,1030.7212C531.45264,1029.7211,532.66547,1028.6902,533.8195,1027.6067C529.902,1027.6041,525.9887,1027.6003,522.081,1027.5938C503.35132,1027.5624,484.61987,1027.5312,465.88586,1027.4996C459.06494,1027.4883,452.2439,1027.4769,445.42297,1027.4655 Z"/> </g> <g style="fill:rgb(0,0,0); fill-opacity:1.0; stroke-linejoin: miter"> <path d="M447.06073,1023.79565C445.21558,1023.79565,443.36926,1023.79614,441.52222,1023.7969C442.75977,1025.072,444.05908,1026.2986,445.41766,1027.4701C452.24042,1027.4816,459.06317,1027.4928,465.8858,1027.5042C484.6181,1027.5358,503.35132,1027.567,522.0807,1027.5983C525.9885,1027.6047,529.902,1027.6088,533.8193,1027.6113C535.0667,1026.4396,536.24536,1025.2109,537.3605,1023.9365C529.58844,1023.9236,521.8154,1023.9104,514.0443,1023.89746C495.31427,1023.86633,476.58307,1023.8351,457.8493,1023.80383L457.84888,1023.8037C454.26117,1023.7975,450.6634,1023.79565,447.06073,1023.79565 Z"/> </g> <g style="fill:rgb(0,0,0); fill-opacity:1.0; stroke-linejoin: miter"> <path d="M434.19525,1013.51746L434.2166,1013.922Q434.46973,1014.6583,436.03833,1017.04504L523.26697,1017.1904Q533.8797,1017.2057,542.2009,1017.1874L542.5488,1016.60315L542.6875,1014.0742Q534.31744,1014.08923,522.081,1014.0708L435.5866,1013.92505Q435.1978,1013.9413,434.19525,1013.51746 Z"/> </g> <g style="fill:rgb(0,0,0); fill-opacity:1.0; stroke-linejoin: miter"> <path d="M445.8764,1010.256C441.95764,1010.256,438.0282,1010.26025,434.08295,1010.2709C434.0818,1010.3793,434.06915,1010.48694,434.06915,1010.5957C434.06915,1010.9359,434.07544,1011.27527,434.08643,1011.61597C434.10706,1012.24536,434.14972,1012.87634,434.19604,1013.5073C434.66254,1013.7046,435.2052,1013.9165,435.58752,1013.91736C445.68726,1013.9341,455.78687,1013.9509,465.88702,1013.968C484.61932,1013.999,503.35248,1014.0305,522.08203,1014.06165C526.1878,1014.0685,530.2991,1014.073,534.42096,1014.073C537.1716,1014.073,539.92694,1014.07104,542.68866,1014.0664C542.6907,1012.77014,542.63763,1011.56116,542.5412,1010.40845C533.043,1010.39246,523.5432,1010.3766,514.0449,1010.36096C495.315,1010.3297,476.58167,1010.29846,457.84998,1010.26697L457.849,1010.26697C453.86548,1010.2604,449.87646,1010.256,445.8764,1010.256 Z"/> </g> <g style="fill:rgb(0,0,0); fill-opacity:1.0; stroke-linejoin: miter"> <path d="M435.71466,1000.38855C435.3861,1001.4149,435.11725,1002.4568,434.8841,1003.5065C444.58972,1003.5226,454.29547,1003.5387,464.0017,1003.5552C482.734,1003.5868,501.46704,1003.6179,520.1967,1003.64905C524.1655,1003.65576,528.1398,1003.66003,532.1241,1003.66003C535.1733,1003.66003,538.2284,1003.6576,541.2915,1003.65173C541.19574,1003.3274,541.10004,1003.0028,540.9953,1002.68115C540.7588,1001.95337,540.4768,1001.2478,540.1929,1000.54333C538.6049,1000.5447,537.0188,1000.5453,535.43414,1000.5453C530.9734,1000.5453,526.5248,1000.5403,522.0815,1000.5332L522.08105,1000.5332C503.3512,1000.50183,484.62006,1000.4706,465.88605,1000.43896C455.82916,1000.42236,445.7716,1000.4053,435.71466,1000.38855 Z"/> </g> <g style="fill:rgb(0,0,0); fill-opacity:1.0; stroke-linejoin: miter"> <path d="M445.09857,996.7189C442.45325,996.7189,439.80328,996.7207,437.14716,996.7252C436.63684,997.8417,436.1643,998.978,435.7777,1000.1594C435.75397,1000.23267,435.7376,1000.3076,435.71417,1000.3811C445.77142,1000.3977,455.82867,1000.4148,465.88568,1000.4314C484.61798,1000.463,503.3512,1000.4944,522.08057,1000.52563C526.4836,1000.53284,530.89185,1000.5377,535.3119,1000.5377C536.9368,1000.5377,538.5633,1000.537,540.1917,1000.5355C539.6844,999.2765,539.1123,998.0513,538.4654,996.86523C530.3248,996.8518,522.18353,996.83813,514.04315,996.8247C495.315,996.79333,476.58557,996.7622,457.85358,996.73047L457.84827,996.73047L457.849,996.73083C453.60687,996.72375,449.35876,996.7189,445.09857,996.7189 Z"/> </g> <g style="fill:rgb(0,0,0); fill-opacity:1.0; stroke-linejoin: miter"> <path d="M443.7431,986.8511C442.83643,987.859,441.9671,988.8916,441.16425,989.96594C448.77637,989.9785,456.38818,989.9916,464.00037,990.004C482.7326,990.0354,501.46576,990.067,520.1952,990.09827C524.7264,990.1056,529.2727,990.10645,533.8205,990.1067C532.9188,989.0342,531.95667,988.0001,530.95654,986.9918C527.99713,986.9889,525.0354,986.98694,522.0804,986.98193C503.3504,986.9507,484.61908,986.9193,465.8853,986.8878L465.88586,986.8878C458.50543,986.87573,451.12494,986.86304,443.7431,986.8511 Z"/> </g> <g style="fill:rgb(0,0,0); fill-opacity:1.0; stroke-linejoin: miter"> <path d="M447.37628,983.18225C446.0937,984.3561,444.88776,985.5864,443.74377,986.85803C451.12457,986.87036,458.50488,986.88293,465.88672,986.8949C484.61896,986.9264,503.35217,986.9581,522.08167,986.98926C525.0365,986.9939,527.99854,986.9961,530.95795,986.9988C529.69196,985.72217,528.36383,984.4896,526.96936,983.3098C522.6609,983.3026,518.35266,983.2954,514.0448,983.2883C495.31494,983.2572,476.5835,983.22546,457.8498,983.19434L457.84894,983.1942C454.3626,983.1885,450.87054,983.18494,447.37628,983.18225 Z"/> </g> <g style="fill:rgb(0,0,0); fill-opacity:1.0; stroke-linejoin: miter"> <path d="M460.92108,973.35156C459.26367,974.34534,457.62762,975.3811,456.0246,976.4623C458.68353,976.46655,461.3421,976.4712,464.00085,976.4757C481.9209,976.50574,499.8413,976.53564,517.758,976.5658C516.07556,975.47974,514.37,974.4392,512.65576,973.438C497.06653,973.4116,481.4762,973.38574,465.88635,973.3596C464.2312,973.35693,462.57635,973.3541,460.92175,973.35156 Z"/> </g> <g style="fill:rgb(0,0,0); fill-opacity:1.0; stroke-linejoin: miter"> <path d="M467.4135,969.67505C465.24585,970.83655,463.07025,972.06213,460.9203,973.35156L460.92108,973.35156C462.576,973.35376,464.2307,973.3568,465.8858,973.3596C481.47656,973.3856,497.06775,973.4115,512.6552,973.43787C510.57428,972.2224,508.48608,971.0586,506.42487,969.95154C506.29016,969.8795,506.1526,969.8114,506.01746,969.739C493.15027,969.718,480.28284,969.69604,467.4135,969.67505 Z"/> </g> <g style="fill:rgb(0,0,0); fill-opacity:1.0; stroke-linejoin: miter"> <path d="M468.76068,932.76514L468.84247,932.8069Q470.95996,933.87463,475.26337,935.895L504.90894,935.9404Q507.29688,934.8767,511.38867,932.8318L468.76068,932.76514 Z"/> </g> <g style="fill:rgb(0,0,0); fill-opacity:1.0; stroke-linejoin: miter"> <path d="M461.6648,929.07007C464.0334,930.3629,466.4134,931.59717,468.7616,932.76794C482.97107,932.7903,497.17932,932.81226,511.38947,932.8346C513.71356,931.6715,516.04266,930.44836,518.3417,929.1581C517.5392,929.1565,516.73676,929.15515,515.9344,929.15393C497.84827,929.126,479.7589,929.0979,461.67017,929.07007 Z"/> </g> <g style="fill:rgb(0,0,0); fill-opacity:1.0; stroke-linejoin: miter"> <path d="M449.50458,919.19946L449.50458,919.2007Q451.40942,920.81836,453.43817,922.3253L520.68054,922.43774L526.0177,922.44543Q528.5181,920.42505,529.66425,919.3303L449.50458,919.19946 Z"/> </g> <g style="fill:rgb(0,0,0); fill-opacity:1.0; stroke-linejoin: miter"> <path d="M445.56586,915.52344C446.8142,916.7981,448.12708,918.0282,449.50433,919.2063C454.96472,919.21545,460.42517,919.22473,465.8858,919.234C484.61816,919.2654,503.35132,919.29675,522.08075,919.32776C524.6065,919.3319,527.13556,919.33484,529.6644,919.3375C530.934,918.16113,532.1351,916.9336,533.26495,915.65894C526.8576,915.6483,520.45056,915.6376,514.04395,915.62695C495.31427,915.5958,476.5829,915.56445,457.84912,915.5333L457.84894,915.5333C453.76562,915.5265,449.6678,915.52527,445.5711,915.52344 Z"/> </g> <g style="fill:rgb(0,0,0); fill-opacity:1.0; stroke-linejoin: miter"> <path d="M485.5432,960.9957L488.40686,962.484Q517.271,977.1078,527.11536,988.944Q538.71716,1002.93384,537.09265,1018.0288Q530.24316,1032.9357,503.6687,1047.1575Q498.97668,1049.7708,485.54346,1056.3212L475.7608,1051.2826Q453.6667,1039.8258,443.78436,1030.0447Q436.66077,1022.8633,433.9959,1016.8821Q433.69354,1013.46594,434.03168,1009.90063Q435.77008,994.8082,447.82593,984.0741Q459.87347,973.1609,485.5432,960.9957 M485.54547,1067.652L489.252,1069.5565Q514.59467,1082.1411,524.4454,1091.2395Q531.70496,1097.679,535.2416,1103.6644L537.0832,1107.03Q537.2998,1109.6025,537.19995,1111.8942Q536.50244,1126.8472,524.35455,1138.8953Q514.91425,1148.9506,485.5442,1162.9114Q452.95618,1146.1741,446.9674,1138.2839Q433.7542,1124.7976,433.85504,1109.2827Q433.33124,1101.5167,449.3299,1088.1667Q458.7951,1080.3091,485.54547,1067.652 M540.25366,899.4247L536.7345,899.4253Q535.00464,923.51306,485.54883,946.04346Q458.43304,932.00964,450.72498,924.7157Q438.0312,914.67664,434.55212,899.4248L430.6551,899.42554Q426.35522,931.3358,470.98987,953.35425Q444.89886,966.6185,436.4195,980.14136Q426.23608,995.04663,432.83765,1016.66626Q437.7599,1043.7693,474.44952,1061.8948Q451.80493,1073.623,444.87634,1082.2761Q436.3758,1091.3151,433.0807,1105.2108Q419.43353,1145.659,470.92743,1170.2098Q446.8479,1182.9781,439.5526,1192.906Q430.7149,1203.2524,430.2511,1217.746Q429.565,1218.1444,433.8236,1230.5956Q434.61133,1214.2466,445.39764,1203.5973Q457.29285,1191.0479,485.5468,1177.8331Q537.172,1201.8099,537.61957,1230.9337Q551.8317,1198.1545,500.16528,1170.5354Q526.64056,1157.4366,535.37134,1142.7964Q544.12646,1128.6394,538.86,1109.5514Q534.67615,1080.5187,496.63843,1062.1449Q515.1734,1053.1342,526.62476,1041.0858Q534.7585,1032.9208,538.7887,1015.8544Q549.8931,977.70483,500.10364,953.6804Q521.2233,943.39246,532.5035,929.9114Q537.1748,924.06995,539.4127,916.72925Q541.7228,909.3701,540.25366,899.4247 Z"/> </g> <g style="fill:rgb(0,0,0); fill-opacity:1.0; stroke-linejoin: miter"> <path d="M485.54626,1177.8354L485.54395,1177.836C475.6725,1182.6886,465.83887,1187.6377,456.80005,1193.9192C444.47772,1202.4838,433.951,1214.2728,433.85962,1230.3876C433.85907,1230.4758,433.8523,1230.5298,433.84235,1230.5663C433.8393,1230.5781,433.8344,1230.5804,433.83026,1230.5876C433.8247,1230.5977,433.82056,1230.616,433.81378,1230.6178L439.4983,1229.2179C439.52545,1229.2109,439.54297,1229.1447,439.5442,1228.988L439.54382,1228.988C439.55896,1226.3668,439.87555,1223.8717,440.40564,1221.4746C440.6399,1220.4152,440.91406,1219.3741,441.23846,1218.3569C441.63715,1217.1069,442.09534,1215.8866,442.61914,1214.6993C443.66455,1212.3309,444.93628,1210.08,446.40936,1207.9523C447.15112,1206.8811,447.95483,1205.8495,448.78693,1204.8375C449.8299,1203.5682,450.93164,1202.3406,452.0951,1201.1605C454.48206,1198.741,457.09363,1196.5057,459.83527,1194.443C460.7083,1193.7865,461.58997,1193.1417,462.48523,1192.5197C463.0697,1192.1135,463.66632,1191.7274,464.2572,1191.3322C466.16052,1190.0585,468.09113,1188.8313,470.0525,1187.6554C475.5343,1184.368,481.21277,1181.4136,486.94446,1178.5571C486.4782,1178.3169,486.01276,1178.0753,485.54626,1177.8354 Z"/> </g> <g style="fill:rgb(0,0,0); fill-opacity:1.0; stroke-linejoin: miter"> <path d="M485.54358,960.99634C479.1151,964.17847,472.70337,967.391,466.48047,970.9686C453.75568,978.28564,439.82672,987.923,435.3921,1002.9956C434.39978,1006.369,433.85492,1009.8911,433.85492,1013.42896C433.85492,1013.76965,433.8606,1014.109,433.87042,1014.4497C433.89435,1015.2588,433.93243,1016.07104,433.99713,1016.88245C437.21753,1023.5272,442.25128,1029.0558,447.87177,1033.6943C459.2353,1043.0708,472.52234,1049.6323,485.54382,1056.3218C485.54425,1056.3215,485.5451,1056.3215,485.54572,1056.321C486.9762,1055.6184,488.41022,1054.9163,489.84436,1054.2128L489.8432,1054.2119C484.383,1051.4125,478.8991,1048.6051,473.53375,1045.5977C471.72113,1044.5818,469.92346,1043.541,468.14624,1042.4685C466.17078,1041.2762,464.21442,1040.0543,462.29895,1038.7701C459.28967,1036.753,456.36353,1034.6105,453.55603,1032.2942C453.45062,1032.2068,453.34912,1032.1139,453.24414,1032.0264C452.0454,1031.0264,450.87555,1029.985,449.74506,1028.9006C448.52356,1027.7292,447.35486,1026.5028,446.242,1025.2273C444.40643,1023.12415,442.74164,1020.8766,441.31085,1018.47034C440.73193,1017.49744,440.17828,1016.50757,439.6814,1015.4823C439.66693,1015.30164,439.66516,1015.12146,439.6532,1014.9404C439.61163,1014.3096,439.57318,1013.6786,439.55463,1013.0492C439.54486,1012.7085,439.53912,1012.36914,439.53912,1012.02893C439.53912,1011.92017,439.5504,1011.8124,439.55157,1011.7041C439.57294,1009.42615,439.82733,1007.16003,440.27216,1004.9346C440.482,1003.885,440.72357,1002.84314,441.01917,1001.81665C441.04016,1001.7433,441.05475,1001.6682,441.07623,1001.5952C441.42383,1000.4137,441.84857,999.27747,442.3078,998.1609C443.29016,995.7727,444.50183,993.5221,445.92072,991.4114C446.64264,990.33704,447.42438,989.3047,448.24005,988.29663C449.26868,987.0248,450.35315,985.7942,451.50653,984.62085C453.89764,982.18774,456.53345,979.96533,459.28357,977.9026C460.72528,976.82153,462.19635,975.7859,463.6872,974.7919C465.6206,973.5027,467.57703,972.27686,469.5263,971.11523C470.40918,970.58887,471.28986,970.07214,472.16492,969.56946C477.0058,966.78577,481.96143,964.22546,486.94983,961.72644C486.48096,961.484,486.0135,961.23865,485.54443,960.99634 Z"/> </g> <g style="fill:rgb(0,0,0); fill-opacity:1.0; stroke-linejoin: miter"> <path d="M485.54187,1067.6522C484.14606,1068.335,482.7563,1069.0171,481.37756,1069.7017C466.91638,1076.881,451.29962,1084.2194,440.3139,1096.5596C437.8852,1099.2876,435.79834,1102.3114,434.14935,1105.5961C433.9646,1106.3893,433.93225,1106.8934,433.9063,1107.397C433.8728,1108.0264,433.85614,1108.6558,433.85596,1109.2831C433.8559,1116.202,435.87946,1122.9612,439.4834,1128.873C447.90076,1142.6788,463.29486,1151.0963,476.95532,1158.423C479.79565,1159.9459,482.66516,1161.4316,485.5453,1162.9116L485.5453,1162.9119C486.97797,1162.207,488.393,1161.4852,489.81787,1160.7738C487.41467,1159.535,485.01337,1158.296,482.64014,1157.023L482.64044,1157.0223C480.73285,1155.9996,478.79053,1154.9517,476.83917,1153.8744C475.00928,1152.8643,473.17328,1151.8225,471.3452,1150.7449C469.34137,1149.5634,467.3534,1148.3334,465.40094,1147.0465C462.25226,1144.9708,459.2093,1142.7391,456.36926,1140.3025C455.19592,1139.296,454.0545,1138.2579,452.96008,1137.177C451.7688,1136.0006,450.6386,1134.7694,449.55963,1133.4957C447.9557,1131.6016,446.4699,1129.6086,445.16797,1127.4728C445.02313,1127.2349,444.8971,1126.9878,444.75732,1126.7471C444.16516,1125.7288,443.62,1124.6875,443.12274,1123.6249C442.56342,1122.4297,442.0628,1121.211,441.62946,1119.9689C440.8623,1117.7698,440.2893,1115.5083,439.94434,1113.2047C439.7685,1112.0308,439.66455,1110.8453,439.60492,1109.6548C439.57544,1109.0652,439.54065,1108.4755,439.54065,1107.8832C439.54065,1107.4033,439.5594,1106.9221,439.57898,1106.4406C439.58502,1106.2926,439.5829,1106.1449,439.59088,1105.9972C439.6167,1105.493,439.6491,1104.9889,439.83398,1104.1956C440.62146,1102.6272,441.51495,1101.1217,442.492,1099.6757C443.21942,1098.5994,444.00507,1097.5657,444.82733,1096.5608C445.2129,1096.0895,445.5935,1095.6145,445.9984,1095.1595C446.68896,1094.384,447.39795,1093.6287,448.12335,1092.8915C450.51715,1090.4594,453.10175,1088.2378,455.81073,1086.1666C457.2171,1085.0917,458.65234,1084.0514,460.12225,1083.0552C462.0174,1081.7719,463.9618,1080.5533,465.93555,1079.3788C472.77148,1075.3113,479.98242,1071.8158,486.93433,1068.3657C486.47083,1068.128,486.0124,1067.8894,485.54755,1067.6522 Z"/> </g> <g style="fill:rgb(0,0,0); fill-opacity:1.0; stroke-linejoin: miter"> <path d="M440.52185,899.42505L440.52185,899.42615L434.54218,899.42505Q434.89343,901.2322,435.39398,902.94116Q439.05377,914.22864,447.82886,922.1373Q451.9485,926.41406,463.28204,933.7047Q471.9121,939.0646,483.93854,945.22095L485.54578,946.0531Q487.68817,944.99316,489.8252,943.9227Q465.09918,931.38403,454.57446,921.713Q443.01978,911.053,440.52185,899.42505"/> </g> <g style="fill:rgb(0,0,0); fill-opacity:1.0; stroke-linejoin: miter"> <path d="M546.1295,899.42456L540.2493,899.4247Q541.7203,909.3845,539.4101,916.7394Q537.1723,924.0803,532.5011,929.92224Q521.2212,943.4031,500.0999,953.6903Q549.8916,977.71484,538.78564,1015.8634Q534.75543,1032.9309,526.6219,1041.0958Q515.1697,1053.1442,496.63568,1062.1548Q519.2799,1074.3878,526.20984,1083.1935Q535.0839,1092.4612,538.8569,1109.5613Q544.1236,1128.6486,535.36835,1142.8066Q526.6369,1157.4475,500.162,1170.5449Q525.7194,1183.7083,535.35925,1199.4547Q540.70435,1209.8702,540.6504,1215.3867Q541.0358,1219.7028,540.61676,1220.9789L537.6166,1230.9438L543.3015,1229.5438Q546.68036,1219.1434,546.41833,1218.8883Q547.1498,1211.1667,542.62573,1200.9961Q535.95874,1185.2692,505.84668,1169.145Q527.09937,1159.1249,538.8722,1144.6394Q549.75146,1129.5308,545.2794,1111.3529Q541.16394,1091.1083,531.89465,1081.7933Q524.96436,1072.9873,502.3203,1060.7546Q539.0124,1043.4438,543.9331,1016.45154Q550.53485,994.9774,540.3518,979.8467Q531.87286,966.1355,505.78528,952.292Q550.4142,931.18787,546.1295,899.42456 Z"/> </g> </g> <g> <g style="fill:rgb(255,255,255); fill-opacity:1.0; stroke-linejoin: miter"> <path d="M543.0039,953.119L551.63257,945.23584L560.2616,937.3533Q570.2622,948.2992,580.2626,959.2455Q571.63446,967.129,563.0068,975.0123Q553.0056,964.0659,543.0039,953.119"/> </g> <g style="fill:rgb(0,0,0); fill-opacity:1.0; stroke-linejoin: miter"> <path d="M705.4182,1098.7539L705.3618,1099.5963Q704.9591,1102.14,703.0058,1103.6649Q701.0392,1105.1879,698.37354,1104.901Q695.8304,1104.4979,694.3049,1102.5441Q693.8162,1101.9125,693.5001,1101.169L693.2345,1100.4038Q693.0153,1099.6138,693.0129,1098.754Q693.0789,1096.1183,694.8293,1094.3682Q696.57935,1092.6177,699.2151,1092.551Q701.8513,1092.6176,703.60126,1094.368Q705.3517,1096.1185,705.4182,1098.7539"/> </g> <g style="fill:rgb(255,255,255); fill-opacity:1.0; stroke-linejoin: miter"> <path d="M690.56537,1074.0763L699.0218,1083.0884L707.4782,1092.1008Q700.62524,1098.5316,693.7724,1104.9626Q685.31537,1095.9514,676.8583,1086.94Q683.7122,1080.5087,690.56537,1074.0763"/> </g> <g style="fill:rgb(0,0,0); fill-opacity:1.0; stroke-linejoin: miter"> <path d="M589.816,1158.1201L678.46576,1158.1218L767.1155,1158.1206Q767.1155,1194.5312,767.1156,1230.9418Q678.46594,1230.9432,589.816,1230.9438Q589.8158,1194.531,589.816,1158.1201"/> </g> <g style="fill:rgb(0,0,0); fill-opacity:1.0; stroke-linejoin: miter"> <path d="M614.8383,962.08154L625.9198,962.08276L637.0016,962.08325Q637.0009,1071.9067,637.0009,1181.7305Q625.91986,1181.7308,614.83826,1181.7308Q614.83826,1071.9067,614.8383,962.08154"/> </g> <g style="fill:rgb(0,0,0); fill-opacity:1.0; stroke-linejoin: miter"> <path d="M583.23517,937.3988L645.7375,1002.26624L708.23975,1067.133Q688.91815,1085.7506,669.59705,1104.3676Q607.0937,1039.5018,544.59045,974.6349Q563.9128,956.01733,583.23517,937.3988"/> </g> <g style="fill:rgb(0,0,0); fill-opacity:1.0; stroke-linejoin: miter"> <path d="M621.9061,1118.2056L676.038,1118.2056L730.1694,1118.206Q730.1694,1120.6306,730.1693,1123.0552Q676.03796,1123.0557,621.90594,1123.0569Q621.9061,1120.6309,621.9061,1118.2056"/> </g> <g style="fill:rgb(255,255,255); fill-opacity:1.0; stroke-linejoin: miter"> <path d="M655.5782,1115.6818L686.301,1115.6824L717.02295,1115.6841Q717.023,1116.8573,717.023,1118.0304Q686.3011,1118.0305,655.5782,1118.0315Q655.5782,1116.8573,655.5782,1115.6818"/> </g> </g> <g> <g style="fill:rgb(0,0,0); fill-opacity:1.0; stroke-linejoin: miter"> </g> <g style="fill:rgb(0,0,0); fill-opacity:1.0; stroke-linejoin: miter"> <path d="M308.8161,998.73364L288.58295,1003.60986L288.58057,1003.61487Q286.30963,1008.5759,286.90027,1011.2892Q287.35638,1013.7599,291.0686,1014.78613Q293.87476,1015.641,300.86304,1016.02856L303.2749,1013.5353Q304.68317,1016.3611,309.33282,1018.2258Q315.13568,1020.578,321.13635,1020.9873Q322.06406,1021.0451,323.02057,1021.0451Q326.61887,1021.0451,330.62463,1020.22705Q336.41498,1018.9169,337.1388,1017.60693Q337.5699,1016.7396,335.29242,1015.5089Q334.50403,1015.07166,333.1784,1014.4689Q325.24176,1011.0266,323.68262,1010.21265Q320.50616,1008.66394,318.30377,1007.1869Q314.12115,1004.4813,308.8161,998.73364 Z"/> </g> <g style="fill:rgb(0,0,0); fill-opacity:1.0; stroke-linejoin: miter"> <path d="M248.5603,996.0026Q247.93312,996.0026,247.18312,996.0288L241.71892,1005.923Q240.99547,1010.5768,241.58766,1013.9324Q242.26729,1018.25684,245.91579,1021.09143Q250.17036,1024.3357,255.56276,1025.0305Q256.33566,1025.108,257.0423,1025.108Q260.68253,1025.108,262.56366,1023.052Q264.52887,1020.786,263.62408,1015.775Q261.90515,1007.6012,257.7541,1001.0112Q254.8408,996.4336,250.43468,996.0895L250.41188,996.08655Q249.68275,996.0026,248.5603,996.0026 Z"/> </g> <g style="fill:rgb(16,9,0); fill-opacity:1.0; stroke-linejoin: miter"> <path d="M276.3708,709.0629Q272.61914,709.0629,268.4245,711.82056Q262.3897,715.63477,261.36017,719.48816Q260.7174,721.4961,260.8946,724.7296Q260.90643,726.0724,261.755,732.4595L262.0551,736.06433Q262.1386,736.8251,262.2812,737.31116Q262.6264,739.38513,267.4267,740.8313L291.3214,737.3175Q291.91254,733.34106,291.63947,723.7672Q291.4452,718.91565,290.3239,716.75476Q289.03253,714.0442,285.02722,711.76086Q280.98798,709.3817,277.42316,709.1178L277.4201,709.1178Q276.89984,709.0629,276.3708,709.0629 Z"/> </g> <g style="fill:rgb(255,193,161); fill-opacity:1.0; stroke-linejoin: miter"> <path d="M271.5905,716.9853Q266.64682,716.9853,264.2738,722.07996Q263.50745,724.02637,263.55206,726.8596Q263.46088,728.1384,264.44806,735.84326Q264.5415,736.8369,264.46692,737.1084Q264.45383,737.17267,264.4207,737.17267Q264.34494,737.17267,264.16437,736.83704Q262.89764,733.8877,262.6725,733.64404Q262.20563,732.9048,261.75183,732.7726Q261.61017,732.74255,261.4756,732.74255Q260.74734,732.74255,260.22607,733.6212Q259.7771,734.4227,260.0841,735.78906Q260.07782,736.15405,261.5011,740.0543Q261.7647,740.80005,262.09637,741.27893Q262.43585,741.72815,262.7755,741.8926L264.71307,742.54346Q265.1513,742.75024,265.24445,742.99854Q265.34412,743.18115,265.3546,743.58325Q265.17377,745.41956,265.2934,745.76074Q265.3601,746.09875,265.49335,746.4126Q266.3781,748.1245,266.28735,748.2035Q265.96033,749.76746,266.22406,750.3971Q266.50293,751.4851,268.27863,753.80884Q272.63025,759.25354,276.2818,762.1853Q279.27722,764.6012,282.315,764.8362Q282.91602,764.90765,283.7745,764.90765Q284.8574,764.90765,286.3499,764.79395L288.41785,755.16675Q287.29468,749.32556,287.6375,748.4021L287.84808,747.8297Q288.59363,746.7611,288.7226,746.4354Q289.0157,745.84045,289.30322,745.0414L289.8105,743.4087Q290.36258,740.5959,290.44736,740.5959Q290.45374,740.5959,290.45746,740.6118Q290.54108,740.3972,290.77643,740.1498Q291.89697,739.2909,292.0321,739.06226Q292.38348,738.6566,292.63647,737.9596Q293.32812,735.875,292.91046,733.58154Q292.338,731.295,291.53186,731.295Q291.43387,731.295,291.33246,731.32874Q290.97736,731.51355,290.69708,732.12756Q290.44507,732.57886,289.71204,734.8058Q289.6051,735.0449,289.56967,735.0449Q289.5536,735.0449,289.55225,734.9956Q290.04968,726.9508,289.5111,724.6172Q288.88556,721.286,286.75848,719.59045Q285.36792,718.47864,284.00977,718.25244L282.92035,718.1532Q281.108,718.23706,279.96103,718.23706Q278.84277,718.23706,278.357,718.15735L272.35162,717.0155L272.31073,717.01135Q271.94406,716.9853,271.5905,716.9853 Z"/> </g> <g style="fill:rgb(167,197,248); fill-opacity:1.0; stroke-linejoin: miter"> <path d="M266.13336,750.0287L266.10553,750.0978L264.85577,753.2047L265.1651,760.06384Q267.85077,796.89075,269.7721,813.4032Q273.13788,843.51135,277.98865,855.5886Q282.35706,866.8985,290.15778,866.8985Q297.61353,866.8985,308.20465,856.5669L302.99567,806.6211L291.13348,758.1172Q288.38638,752.87115,288.06305,752.87115Q288.04666,752.87115,288.0365,752.88464Q288.0211,752.87823,288.0076,752.8779L288.0047,752.8779Q287.74515,752.8843,288.22052,755.20386L280.75842,762.1776L266.13336,750.0287 Z"/> </g> <g style="fill:rgb(0,0,0); fill-opacity:1.0; stroke-linejoin: miter"> <path d="M275.53256,918.30817L275.47595,918.3091L243.03117,919.13684Q243.0996,925.04736,242.91945,926.8065Q242.87962,927.3417,242.71895,928.0209L242.0948,929.9043Q241.90834,930.5487,241.76979,931.19763Q241.38249,932.99133,241.0811,935.22107Q240.67802,937.4833,240.32967,945.7273L239.8206,949.96606Q239.72935,951.051,239.74031,952.54236Q239.99763,960.9365,239.89372,961.84143Q239.92259,963.1018,239.17174,968.5493Q239.0681,969.5908,239.04445,970.843Q239.00566,972.70935,239.15846,975.4691L239.82948,984.5438Q239.92448,985.26184,239.56056,991.4303Q239.5345,992.4686,239.57689,992.9723Q239.69154,994.87134,240.85329,995.3683L238.86876,998.9448Q240.364,1003.02136,240.91682,1006.29285Q241.1436,1006.98584,241.43819,1006.98584Q241.46439,1006.98584,241.49113,1006.98035Q241.85344,1006.9758,242.59981,1006.2189Q245.85115,1002.41943,245.99283,1002.41943Q245.9984,1002.41943,245.99916,1002.4253Q248.21732,1000.4255,248.60979,1000.4255Q248.65079,1000.4255,248.67186,1000.44727Q248.89914,1000.2602,249.65666,1000.2602Q251.88191,1000.2602,258.68268,1001.87463Q258.46558,998.01306,258.79688,996.00696Q258.74115,995.4469,260.51923,988.97864Q260.83606,987.5365,260.91113,986.3628Q261.00305,985.0331,260.90625,983.4509Q259.97766,974.55383,260.1693,973.2356Q260.21448,969.3627,261.299,963.9402Q262.94635,954.4335,275.5353,918.30817 Z"/> </g> <g style="fill:rgb(0,0,0); fill-opacity:1.0; stroke-linejoin: miter"> <path d="M305.66925,853.7117L305.61517,853.72546L292.24524,857.05884L282.30392,855.7898L282.3011,855.7898Q283.08942,888.49677,283.9815,904.06177Q284.37927,911.2883,284.95947,918.824L287.4472,949.27466Q287.53156,951.604,287.42816,953.47644Q286.61896,963.673,286.2873,972.01636Q285.99554,979.349,286.0443,984.1188Q286.07104,988.06775,286.39996,991.552Q286.5821,993.9835,287.6568,999.95337L287.89154,1003.579Q287.8255,1005.20605,290.19196,1005.28735Q290.62415,1005.28973,291.0434,1005.28973Q299.37814,1005.28973,302.59167,1004.3401Q304.2492,1003.9962,311.748,999.41956Q309.95715,996.9147,309.8836,996.37524Q309.85114,996.07153,309.97052,996.0033Q310.62872,995.61304,310.87463,994.90234Q311.09985,994.2977,311.18414,992.91724Q311.21118,991.8965,311.12433,991.57043Q310.57074,991.36,310.4662,988.5055Q310.32874,985.4641,310.5027,977.77686L311.79126,933.4591Q313.54755,904.9877,313.13184,902.29395Q313.03864,900.30164,312.8468,899.05994L311.6424,892.69324L310.25775,881.84937L308.28296,872.08704L307.48175,864.8423Q306.53186,859.4773,305.66925,853.7117 Z"/> </g> <g style="fill:rgb(0,0,0); fill-opacity:1.0; stroke-linejoin: miter"> <path d="M280.03522,762.79443L280.02637,762.80444L275.9037,767.6107L280.30945,772.0974L285.6714,845.5797L293.7166,852.3865L300.99628,844.7173Q300.7268,842.19885,295.1944,809.71814Q292.6324,794.9635,291.02832,787.348Q288.17395,773.4132,285.3405,770.14026L287.31873,767.66174L282.8208,763.286L280.03522,762.79443 Z"/> </g> <g style="fill:rgb(255,255,255); fill-opacity:1.0; stroke-linejoin: miter"> <path d="M265.0067,751.51135L264.93396,751.6492L261.7588,757.5117Q248.09157,761.3589,243.59065,766.48645Q239.03706,771.1129,237.76122,779.9579Q234.81862,803.0802,248.04192,830.3793Q247.21034,840.08826,246.47682,846.46436Q242.42854,877.9209,242.33632,881.0161Q241.74394,885.6426,241.37788,906.235Q241.20631,910.18945,240.41127,919.3678L284.78577,919.34094L287.97412,832.2494L304.4903,829.8074L301.0775,811.27625L288.53088,812.9365L283.62274,788.76526Q282.0255,781.7844,280.12415,776.84106Q277.12024,768.1316,265.0067,751.51135 Z"/> </g> <g style="fill:rgb(255,255,255); fill-opacity:1.0; stroke-linejoin: miter"> <path d="M290.01926,756.0138L290.0263,756.2272L291.24817,786.6249L311.75287,917.5808L322.87103,920.56885Q319.70465,897.6332,316.62323,880.7301Q314.0041,865.8948,305.87396,826.5102L305.877,826.5102L320.02954,826.6693Q322.4121,826.6216,323.8891,825.8661Q327.62292,824.15576,327.38153,815.6748Q326.95496,806.00085,323.16925,791.81335Q319.4015,778.2009,315.424,771.8622Q312.89227,767.81995,309.76038,765.8685Q308.3756,764.99866,306.73187,764.44714Q299.08936,762.8302,297.80536,761.86804Q294.64902,760.3596,290.02216,756.0138 Z"/> </g> <g style="fill:rgb(0,0,0); fill-opacity:1.0; stroke-linejoin: miter"> <path d="M290.93805,784.7634L290.92297,784.7937L276.24683,815.1046L299.9757,811.0857L305.6458,826.00024L304.3117,826.6294L300.82556,829.3036L309.55634,832.5991L331.60016,795.0602Q331.79218,794.9845,331.35327,794.9143L290.93805,784.7634 Z"/> </g> <g style="fill:rgb(255,193,161); fill-opacity:1.0; stroke-linejoin: miter"> <path d="M317.5134,799.6104Q315.5607,799.6104,312.91583,801.4999Q312.05634,802.13196,311.19165,803.0161L308.49396,806.01855Q308.229,806.2678,307.9112,806.46265L306.73724,807.0056Q306.41028,807.18274,306.1305,807.42346Q305.3943,808.02454,303.79523,809.9424L307.98242,821.9363Q317.0871,821.71436,319.7395,819.5936Q320.71857,818.92834,321.17523,818.1428Q321.30432,817.9197,321.39185,817.59424Q321.58856,816.303,321.6989,816.09155Q321.87805,815.56775,322.29456,814.97375L323.2163,813.8275Q326.17682,810.6079,326.3402,810.3474Q327.1396,809.38367,327.49268,808.59424Q328.3914,806.3345,325.90942,806.3345Q325.83838,806.3345,325.7646,806.3363Q324.6737,806.3977,322.93756,806.9164Q322.50153,806.9999,317.60834,808.7489L316.0379,809.23035Q315.22528,809.44586,314.77847,809.44586Q314.4493,809.44586,314.31873,809.32886Q313.8614,808.88916,315.3507,807.1543Q316.58063,805.6719,319.41888,803.64844Q319.8661,803.2317,319.9959,802.8385Q320.29883,801.83386,319.58563,800.71875Q318.899,799.74414,317.77588,799.61926L317.76117,799.61816Q317.6387,799.6104,317.5134,799.6104 Z"/> </g> <g style="fill:rgb(167,197,248); fill-opacity:1.0; stroke-linejoin: miter"> <path d="M303.9853,809.3462L303.97485,809.3512L299.8864,811.2578L304.43555,826.6102L304.45416,826.6022L309.14838,824.3457L303.9853,809.3462 Z"/> </g> <g style="fill:rgb(255,0,0); fill-opacity:0.09803922; stroke-linejoin: miter"> <path d="M287.7379,748.31616L287.7301,748.3259L287.7223,748.3357L287.72336,748.3367L287.7379,748.31616"/> </g> <g style="fill:rgb(255,0,0); fill-opacity:0.09803922; stroke-linejoin: miter"> <path d="M287.68164,748.3878L286.5566,749.767Q284.33377,752.36896,282.32855,753.72003Q281.32593,754.39557,280.37772,754.7583L279.4431,755.0428Q278.24905,755.23016,278.20157,755.181Q276.12863,755.1737,273.58194,753.699Q271.52072,752.50684,267.94336,749.52795L279.41766,759.48035L287.68164,748.3878 Z"/> </g> <g style="fill:rgb(0,0,0); fill-opacity:0.09411765; stroke-linejoin: miter"> <path d="M252.07869,791.08813L252.08012,791.09607L260.87097,815.219L271.94,816.36523L263.2334,812.1349L252.07869,791.08813 Z"/> </g> <g style="fill:rgb(0,0,0); fill-opacity:0.078431375; stroke-linejoin: miter"> <path d="M247.88243,830.04956L248.04193,830.37933L247.63153,835.03485L250.5297,840.1085L287.29608,833.47565L252.48636,835.14355L247.88243,830.04956 Z"/> </g> <g style="fill:rgb(48,78,74); fill-opacity:1.0; stroke-linejoin: miter"> <path d="M179.04465,1157.7515L178.36662,1157.7971Q173.9479,1158.7761,174.09314,1163.4254Q175.41357,1167.8197,179.04465,1167.7467L368.15503,1167.7433L371.58978,1167.9506Q394.35175,1171.833,395.90967,1195.5913Q393.43405,1216.3868,373.15622,1220.6681L369.34082,1220.9431L179.04465,1220.9421Q175.41328,1220.8654,174.09308,1225.2616Q173.86311,1229.0226,177.09956,1230.5487Q178.66104,1231.0483,179.04465,1230.9437L369.3437,1230.9401Q396.99127,1229.0208,404.85596,1203.2102Q408.14758,1195.2207,402.52954,1179.229Q395.97562,1166.0981,382.13333,1160.4775Q377.65173,1158.7045,372.7577,1158.0675L367.81024,1157.7521L179.04465,1157.7515 Z"/> </g> <g style="fill:rgb(235,240,243); fill-opacity:1.0; stroke-linejoin: miter"> <path d="M179.99306,1167.7433L181.88432,1172.1766Q187.04225,1185.4761,186.0107,1198.776Q183.86154,1214.2924,179.99306,1220.9421L369.3427,1220.942L373.1579,1220.669L376.80707,1219.8754Q380.37347,1218.8219,383.45572,1216.8793Q389.6965,1212.9187,393.08893,1206.316Q398.1471,1195.468,394.25598,1185.1144Q391.78076,1178.8507,386.68246,1174.5333Q379.9776,1169.7236,378.14337,1169.5421Q374.9942,1168.3699,371.58966,1167.9517L368.15463,1167.7445L179.99306,1167.7433 Z"/> </g> <g style="fill:rgb(225,230,233); fill-opacity:1.0; stroke-linejoin: miter"> <path d="M183.68279,1177.7714C183.88652,1178.4734,184.11815,1179.176,184.29637,1179.8816L379.4812,1179.8793L379.4812,1177.7732L183.68462,1177.7714 Z"/> </g> <g style="fill:rgb(225,230,233); fill-opacity:1.0; stroke-linejoin: miter"> <path d="M185.4175,1185.527L185.4767,1185.8783L185.78656,1187.6389L379.4812,1187.6366L379.4812,1185.5283L185.4175,1185.527 Z"/> </g> <g style="fill:rgb(225,230,233); fill-opacity:1.0; stroke-linejoin: miter"> <path d="M186.12233,1193.2891L186.12985,1193.8154L186.12233,1195.3993L379.48047,1195.3975L379.48047,1193.2902Q282.80328,1193.2896,186.12233,1193.2891 Z"/> </g> <g style="fill:rgb(225,230,233); fill-opacity:1.0; stroke-linejoin: miter"> <path d="M185.78685,1201.0499C185.70284,1201.7518,185.52605,1202.4557,185.41808,1203.1622L379.48047,1203.1588L379.48047,1201.051L185.78685,1201.0499 Z"/> </g> <g style="fill:rgb(225,230,233); fill-opacity:1.0; stroke-linejoin: miter"> <path d="M184.29637,1208.8083C184.11842,1209.5099,183.88707,1210.212,183.68279,1210.9181L379.48047,1210.9163L379.48047,1208.8118L184.29637,1208.8083 Z"/> </g> <g style="fill:rgb(99,76,60); fill-opacity:1.0; stroke-linejoin: miter"> <path d="M389.9928,1085.7389L201.22826,1085.7405Q185.75008,1086.0803,174.88344,1095.9644Q166.92838,1104.6328,166.50775,1107.2173Q164.45564,1111.4935,163.61067,1116.3027Q161.09027,1144.269,185.20801,1155.9482Q189.66582,1157.8809,194.63853,1158.5815L199.69392,1158.9281L389.99298,1158.931Q394.5618,1158.4983,394.99023,1153.9294Q394.5618,1149.3582,389.99298,1148.9312L199.69667,1148.9323L195.8812,1148.657Q175.60287,1144.3743,173.12755,1123.5789Q174.68564,1099.821,197.44771,1095.9391L200.88243,1095.7319L389.9928,1095.7352Q394.56018,1095.303,394.9898,1090.7358Q394.56018,1086.1649,389.9928,1085.7389 Z"/> </g> <g style="fill:rgb(235,240,243); fill-opacity:1.0; stroke-linejoin: miter"> <path d="M389.04028,1095.7319L200.8827,1095.734Q177.65157,1097.341,173.2287,1119.6743Q172.87764,1141.0747,192.2316,1147.8638Q195.79819,1148.9175,199.69666,1148.93L389.04462,1148.9312Q376.66754,1122.3315,389.04028,1095.7319 Z"/> </g> <g style="fill:rgb(225,230,233); fill-opacity:1.0; stroke-linejoin: miter"> <path d="M385.35046,1105.7587L189.55653,1105.7598L189.55653,1107.8662L384.7409,1107.8677C384.91913,1107.1652,385.15082,1106.4613,385.3543,1105.7587 Z"/> </g> <g style="fill:rgb(225,230,233); fill-opacity:1.0; stroke-linejoin: miter"> <path d="M383.6153,1113.5161L189.5561,1113.5172L189.5561,1115.6251L383.25134,1115.6263C383.33435,1114.9213,383.51123,1114.2169,383.61914,1113.5161 Z"/> </g> <g style="fill:rgb(225,230,233); fill-opacity:1.0; stroke-linejoin: miter"> <path d="M382.91196,1121.277L189.5561,1121.2781L189.5561,1123.3846L382.91577,1123.3866C382.90192,1122.6816,382.90192,1121.9789,382.91577,1121.277 Z"/> </g> <g style="fill:rgb(225,230,233); fill-opacity:1.0; stroke-linejoin: miter"> <path d="M383.25134,1129.0378L189.5561,1129.0394L189.5561,1131.1462L383.61914,1131.1497C383.5114,1130.443,383.33435,1129.7404,383.25134,1129.0378 Z"/> </g> <g style="fill:rgb(225,230,233); fill-opacity:1.0; stroke-linejoin: miter"> <path d="M384.7409,1136.7958L189.5561,1136.7997L189.5561,1138.9047L385.3545,1138.9077C385.15076,1138.1997,384.91913,1137.4973,384.7409,1136.7958 Z"/> </g> <g style="fill:rgb(13,106,172); fill-opacity:1.0; stroke-linejoin: miter"> <path d="M182.35529,1013.4745L181.67741,1013.52014Q177.2596,1014.4987,177.4044,1019.15027Q178.72505,1023.5445,182.35529,1023.4717L371.46545,1023.4676L374.90027,1023.6748Q397.66275,1027.5566,399.22083,1051.3152Q396.74533,1072.1118,376.46698,1076.3928L372.6516,1076.6674L182.35529,1076.6667Q178.72366,1076.5902,177.40364,1080.9849Q177.1736,1084.7474,180.41016,1086.2722Q181.97182,1086.7717,182.35548,1086.6674L372.6546,1086.6636Q400.30283,1084.7446,408.1667,1058.9347Q411.45837,1050.9458,405.8399,1034.9534Q399.2857,1021.8219,385.4429,1016.2012Q380.9611,1014.4282,376.06677,1013.791L371.11902,1013.4756L182.35529,1013.4745 Z"/> </g> <g style="fill:rgb(235,240,243); fill-opacity:1.0; stroke-linejoin: miter"> <path d="M183.30331,1023.4675L185.19463,1027.9011Q188.54732,1034.5514,189.49297,1050.0674Q189.49297,1063.3668,183.30331,1076.6667L372.6535,1076.6666L376.46875,1076.3936L380.11798,1075.6Q383.6844,1074.5464,386.76675,1072.604Q393.00775,1068.6436,396.4002,1062.0408Q401.4585,1051.1921,397.567,1040.8381Q395.09167,1034.5747,389.9933,1030.2572Q383.28836,1025.4478,381.45407,1025.2662Q378.30493,1024.094,374.90045,1023.67584L371.46545,1023.4686L183.30331,1023.4675 Z"/> </g> <g style="fill:rgb(225,230,233); fill-opacity:1.0; stroke-linejoin: miter"> <path d="M200.97911,1034.2737C201.16722,1034.9238,201.3824,1035.5768,201.54771,1036.2286L382.58038,1036.2268L382.58038,1034.2755L200.98686,1034.2737 Z"/> </g> <g style="fill:rgb(225,230,233); fill-opacity:1.0; stroke-linejoin: miter"> <path d="M188.72835,1041.2517L188.78754,1041.6027L189.09724,1043.3623Q285.94434,1043.3618,382.7915,1043.3612L382.7915,1041.2528Q285.7618,1041.2522,188.72835,1041.2517 Z"/> </g> <g style="fill:rgb(225,230,233); fill-opacity:1.0; stroke-linejoin: miter"> <path d="M189.43271,1049.013L189.4405,1049.54L189.43271,1051.1223Q286.1121,1051.1221,382.7915,1051.1216L382.7915,1049.0142Q286.11404,1049.0137,189.43271,1049.013 Z"/> </g> <g style="fill:rgb(225,230,233); fill-opacity:1.0; stroke-linejoin: miter"> <path d="M189.09724,1056.7745C189.01335,1057.4766,188.83644,1058.1792,188.72835,1058.8857L382.7915,1058.8823L382.7915,1056.7756L189.09724,1056.7745 Z"/> </g> <g style="fill:rgb(225,230,233); fill-opacity:1.0; stroke-linejoin: miter"> <path d="M187.60728,1064.5319C187.42915,1065.2334,187.19774,1065.9348,186.99352,1066.642L382.7915,1066.6409L382.7915,1064.5364L187.60728,1064.5319 Z"/> </g> </g> <g style="fill:rgb(0,0,0); fill-opacity:1.0; stroke-linejoin: miter"> <path d="M847.0635,1230.9199L843.5642,1231.1775Q818.6859,1231.9556,697.9767,1232.4221Q576.4322,1232.8883,411.72284,1232.8002Q254.52922,1232.677,160.28299,1232.0795Q130.08543,1231.8862,110.53587,1231.6584L94.10503,1231.4244Q80.56448,1231.1826,80.41226,1230.9199Q84.52278,1230.1136,192.68575,1229.5782Q300.8487,1229.043,463.73785,1229.0226Q626.627,1229.043,734.7899,1229.5782Q842.953,1230.1136,847.0635,1230.9199"/> </g> </g></svg>